<mxfile host="app.diagrams.net" modified="2024-03-05T13:41:43.413Z" agent="Mozilla/5.0 (Macintosh; Intel Mac OS X 10_15_7) AppleWebKit/537.36 (KHTML, like Gecko) Chrome/122.0.0.0 Safari/537.36" etag="CVh6kp62R7Ay3WMQXIQD" version="24.0.1" type="google">
  <diagram name="Page-1" id="5e4OOXg4V1FV2-mx9Squ">
    <mxGraphModel grid="1" page="1" gridSize="10" guides="1" tooltips="1" connect="1" arrows="1" fold="1" pageScale="1" pageWidth="827" pageHeight="1169" math="0" shadow="0">
      <root>
        <mxCell id="0" />
        <mxCell id="1" parent="0" />
        <mxCell id="nTbA3EUPLM0Qqg01UbJy-48" style="edgeStyle=orthogonalEdgeStyle;rounded=0;orthogonalLoop=1;jettySize=auto;html=1;" edge="1" parent="1" source="nTbA3EUPLM0Qqg01UbJy-1" target="nTbA3EUPLM0Qqg01UbJy-46">
          <mxGeometry relative="1" as="geometry" />
        </mxCell>
        <mxCell id="nTbA3EUPLM0Qqg01UbJy-51" value="Scheduled run" style="edgeLabel;html=1;align=center;verticalAlign=middle;resizable=0;points=[];" connectable="0" vertex="1" parent="nTbA3EUPLM0Qqg01UbJy-48">
          <mxGeometry x="-0.1199" y="1" relative="1" as="geometry">
            <mxPoint x="7" y="1" as="offset" />
          </mxGeometry>
        </mxCell>
        <mxCell id="nTbA3EUPLM0Qqg01UbJy-58" value="" style="edgeStyle=orthogonalEdgeStyle;rounded=0;orthogonalLoop=1;jettySize=auto;html=1;" edge="1" parent="1" source="nTbA3EUPLM0Qqg01UbJy-1" target="nTbA3EUPLM0Qqg01UbJy-57">
          <mxGeometry relative="1" as="geometry" />
        </mxCell>
        <mxCell id="nTbA3EUPLM0Qqg01UbJy-62" style="edgeStyle=orthogonalEdgeStyle;rounded=0;orthogonalLoop=1;jettySize=auto;html=1;" edge="1" parent="1" source="nTbA3EUPLM0Qqg01UbJy-1" target="nTbA3EUPLM0Qqg01UbJy-45">
          <mxGeometry relative="1" as="geometry" />
        </mxCell>
        <mxCell id="nTbA3EUPLM0Qqg01UbJy-63" value="On push&amp;nbsp;docker/tracker/**" style="edgeLabel;html=1;align=center;verticalAlign=middle;resizable=0;points=[];" connectable="0" vertex="1" parent="nTbA3EUPLM0Qqg01UbJy-62">
          <mxGeometry x="-0.0979" y="-4" relative="1" as="geometry">
            <mxPoint y="4" as="offset" />
          </mxGeometry>
        </mxCell>
        <mxCell id="nTbA3EUPLM0Qqg01UbJy-1" value="GitHub&lt;br&gt;vazome/redbull-tracker-ge" style="shape=image;html=1;verticalAlign=top;verticalLabelPosition=bottom;labelBackgroundColor=#ffffff;imageAspect=0;aspect=fixed;image=https://cdn4.iconfinder.com/data/icons/ionicons/512/icon-social-github-128.png" vertex="1" parent="1">
          <mxGeometry x="271" y="560" width="86" height="86" as="geometry" />
        </mxCell>
        <mxCell id="nTbA3EUPLM0Qqg01UbJy-3" value="Docker Hub&#xa;vazome/redbull-tracker-ge" style="shape=image;verticalLabelPosition=bottom;labelBackgroundColor=default;verticalAlign=top;aspect=fixed;imageAspect=0;image=data:image/svg+xml,PHN2ZyB4bWxucz0iaHR0cDovL3d3dy53My5vcmcvMjAwMC9zdmciIHZpZXdCb3g9IjAgMCA3NTYuMjYgNTk2LjkiIGRhdGEtbmFtZT0iTGF5ZXIgMSIgaWQ9IkxheWVyXzEiPiYjeGE7ICA8ZGVmcz4mI3hhOyAgICA8c3R5bGU+JiN4YTsgICAgICAuY2xzLTEgeyYjeGE7ICAgICAgICBmaWxsOiAjMWQ2M2VkOyYjeGE7ICAgICAgICBzdHJva2Utd2lkdGg6IDBweDsmI3hhOyAgICAgIH0mI3hhOyAgICA8L3N0eWxlPiYjeGE7ICA8L2RlZnM+JiN4YTsgIDxwYXRoIGQ9Ik03NDMuOTYsMjQ1LjI1Yy0xOC41NC0xMi40OC02Ny4yNi0xNy44MS0xMDIuNjgtOC4yNy0xLjkxLTM1LjI4LTIwLjEtNjUuMDEtNTMuMzgtOTAuOTVsLTEyLjMyLTguMjctOC4yMSwxMi40Yy0xNi4xNCwyNC41LTIyLjk0LDU3LjE0LTIwLjUzLDg2LjgxLDEuOSwxOC4yOCw4LjI2LDM4LjgzLDIwLjUzLDUzLjc0LTQ2LjEsMjYuNzQtODguNTksMjAuNjctMjc2Ljc3LDIwLjY3SC4wNmMtLjg1LDQyLjQ5LDUuOTgsMTI0LjIzLDU3Ljk2LDE5MC43Nyw1Ljc0LDcuMzUsMTIuMDQsMTQuNDYsMTguODcsMjEuMzEsNDIuMjYsNDIuMzIsMTA2LjExLDczLjM1LDIwMS41OSw3My40NCwxNDUuNjYuMTMsMjcwLjQ2LTc4LjYsMzQ2LjM3LTI2OC45NywyNC45OC40MSw5MC45Miw0LjQ4LDEyMy4xOS01Ny44OC43OS0xLjA1LDguMjEtMTYuNTQsOC4yMS0xNi41NGwtMTIuMy04LjI3Wk0xODkuNjcsMjA2LjM5aC04MS43djgxLjdoODEuN3YtODEuN1pNMjk1LjIyLDIwNi4zOWgtODEuN3Y4MS43aDgxLjd2LTgxLjdaTTQwMC43NywyMDYuMzloLTgxLjd2ODEuN2g4MS43di04MS43Wk01MDYuMzIsMjA2LjM5aC04MS43djgxLjdoODEuN3YtODEuN1pNODQuMTIsMjA2LjM5SDIuNDJ2ODEuN2g4MS43di04MS43Wk0xODkuNjcsMTAzLjJoLTgxLjd2ODEuN2g4MS43di04MS43Wk0yOTUuMjIsMTAzLjJoLTgxLjd2ODEuN2g4MS43di04MS43Wk00MDAuNzcsMTAzLjJoLTgxLjd2ODEuN2g4MS43di04MS43Wk00MDAuNzcsMGgtODEuN3Y4MS43aDgxLjdWMFoiIGNsYXNzPSJjbHMtMSIvPiYjeGE7PC9zdmc+;" vertex="1" parent="1">
          <mxGeometry x="277.90999999999997" y="760" width="72.18" height="57" as="geometry" />
        </mxCell>
        <mxCell id="nTbA3EUPLM0Qqg01UbJy-12" value="Telegram&#xa;@RedBullTrackerBot" style="shape=image;verticalLabelPosition=bottom;labelBackgroundColor=default;verticalAlign=top;aspect=fixed;imageAspect=0;image=data:image/svg+xml,PHN2ZyB4bWxuczp4bGluaz0iaHR0cDovL3d3dy53My5vcmcvMTk5OS94bGluayIgeG1sbnM9Imh0dHA6Ly93d3cudzMub3JnLzIwMDAvc3ZnIiB2ZXJzaW9uPSIxLjEiIHZpZXdCb3g9IjAgMCAxMDAwIDEwMDAiIGhlaWdodD0iMTAwMHB4IiB3aWR0aD0iMTAwMHB4Ij4mI3hhOyAgICAmI3hhOyAgICA8dGl0bGU+QXJ0Ym9hcmQ8L3RpdGxlPiYjeGE7ICAgIDxkZXNjPkNyZWF0ZWQgd2l0aCBTa2V0Y2guPC9kZXNjPiYjeGE7ICAgIDxkZWZzPiYjeGE7ICAgICAgICA8bGluZWFyR3JhZGllbnQgaWQ9ImxpbmVhckdyYWRpZW50LTEiIHkyPSI5OS4yNTgzNDA0JSIgeDI9IjUwJSIgeTE9IjAlIiB4MT0iNTAlIj4mI3hhOyAgICAgICAgICAgIDxzdG9wIG9mZnNldD0iMCUiIHN0b3AtY29sb3I9IiMyQUFCRUUiLz4mI3hhOyAgICAgICAgICAgIDxzdG9wIG9mZnNldD0iMTAwJSIgc3RvcC1jb2xvcj0iIzIyOUVEOSIvPiYjeGE7ICAgICAgICA8L2xpbmVhckdyYWRpZW50PiYjeGE7ICAgIDwvZGVmcz4mI3hhOyAgICA8ZyBmaWxsLXJ1bGU9ImV2ZW5vZGQiIGZpbGw9Im5vbmUiIHN0cm9rZS13aWR0aD0iMSIgc3Ryb2tlPSJub25lIiBpZD0iQXJ0Ym9hcmQiPiYjeGE7ICAgICAgICA8Y2lyY2xlIHI9IjUwMCIgY3k9IjUwMCIgY3g9IjUwMCIgZmlsbD0idXJsKCNsaW5lYXJHcmFkaWVudC0xKSIgaWQ9Ik92YWwiLz4mI3hhOyAgICAgICAgPHBhdGggZmlsbD0iI0ZGRkZGRiIgaWQ9IlBhdGgtMyIgZD0iTTIyNi4zMjg0MTksNDk0LjcyMjA2OSBDMzcyLjA4ODU3Myw0MzEuMjE2Njg1IDQ2OS4yODQ4MzksMzg5LjM1MDA0OSA1MTcuOTE3MjE2LDM2OS4xMjIxNjEgQzY1Ni43NzI1MzUsMzExLjM2NzQzIDY4NS42MjU0ODEsMzAxLjMzNDgxNSA3MDQuNDMxNDI3LDMwMS4wMDM1MzIgQzcwOC41Njc2MjEsMzAwLjkzMDY3IDcxNy44MTU4MzksMzAxLjk1NTc0MyA3MjMuODA2NDQ2LDMwNi44MTY3MDcgQzcyOC44NjQ3OTcsMzEwLjkyMTIxIDczMC4yNTY1NTIsMzE2LjQ2NTgxIDczMC45MjI1NTEsMzIwLjM1NzMyOSBDNzMxLjU4ODU1MSwzMjQuMjQ4ODQ4IDczMi40MTc4NzksMzMzLjExMzgyOCA3MzEuNzU4NjI2LDM0MC4wNDA2NjYgQzcyNC4yMzQwMDcsNDE5LjEwMjQ4NiA2OTEuNjc1MTA0LDYxMC45NjQ2NzQgNjc1LjExMDk4Miw2OTkuNTE1MjY3IEM2NjguMTAyMDgsNzM2Ljk4NDM0MiA2NTQuMzAxMzM2LDc0OS41NDc1MzIgNjQwLjk0MDYxOCw3NTAuNzc3MDA2IEM2MTEuOTA0Njg0LDc1My40NDg5MzggNTg5Ljg1NjExNSw3MzEuNTg4MDM1IDU2MS43MzMzOTMsNzEzLjE1MzIzNyBDNTE3LjcyNjg4Niw2ODQuMzA2NDE2IDQ5Mi44NjYwMDksNjY2LjM0OTE4MSA0NTAuMTUwMDc0LDYzOC4yMDAwMTMgQzQwMC43ODQ0Miw2MDUuNjY4NzggNDMyLjc4NjExOSw1ODcuNzg5MDQ4IDQ2MC45MTk0NjIsNTU4LjU2ODU2MyBDNDY4LjI4MjA5MSw1NTAuOTIxNDIzIDU5Ni4yMTUwOCw0MzQuNTU2NDc5IDU5OC42OTEyMjcsNDI0LjAwMDM1NSBDNTk5LjAwMDkxLDQyMi42ODAxMzUgNTk5LjI4ODMxMiw0MTcuNzU4OTgxIDU5Ni4zNjQ3NCw0MTUuMTYwNDMxIEM1OTMuNDQxMTY4LDQxMi41NjE4ODEgNTg5LjEyNjIyOSw0MTMuNDUwNDg0IDU4Ni4wMTI0NDgsNDE0LjE1NzE5OCBDNTgxLjU5ODc1OCw0MTUuMTU4OTQzIDUxMS4yOTc3OTMsNDYxLjYyNTI3NCAzNzUuMTA5NTUzLDU1My41NTYxODkgQzM1NS4xNTQ4NTgsNTY3LjI1ODYyMyAzMzcuMDgwNTE1LDU3My45MzQ5MDggMzIwLjg4NjUyNCw1NzMuNTg1MDQ2IEMzMDMuMDMzOTQ4LDU3My4xOTkzNTEgMjY4LjY5Mjc1NCw1NjMuNDkwOTI4IDI0My4xNjM2MDYsNTU1LjE5MjQwOCBDMjExLjg1MTA2Nyw1NDUuMDEzOTM2IDE4Ni45NjQ0ODQsNTM5LjYzMjUwNCAxODkuMTMxNTQ3LDUyMi4zNDYzMDkgQzE5MC4yNjAyODcsNTEzLjM0MjU4OSAyMDIuNjU5MjQ0LDUwNC4xMzQ1MDkgMjI2LjMyODQxOSw0OTQuNzIyMDY5IFoiLz4mI3hhOyAgICA8L2c+JiN4YTs8L3N2Zz4=;" vertex="1" parent="1">
          <mxGeometry x="1226.5" y="741.5" width="94" height="94" as="geometry" />
        </mxCell>
        <mxCell id="nTbA3EUPLM0Qqg01UbJy-14" value="AWS Cloud" style="points=[[0,0],[0.25,0],[0.5,0],[0.75,0],[1,0],[1,0.25],[1,0.5],[1,0.75],[1,1],[0.75,1],[0.5,1],[0.25,1],[0,1],[0,0.75],[0,0.5],[0,0.25]];outlineConnect=0;gradientColor=none;html=1;whiteSpace=wrap;fontSize=12;fontStyle=0;container=1;pointerEvents=0;collapsible=0;recursiveResize=0;shape=mxgraph.aws4.group;grIcon=mxgraph.aws4.group_aws_cloud_alt;strokeColor=#FF9900;fillColor=none;verticalAlign=top;align=left;spacingLeft=30;fontColor=#232F3E;dashed=0;" vertex="1" parent="1">
          <mxGeometry x="760" y="100" width="840" height="600" as="geometry" />
        </mxCell>
        <mxCell id="QebvsbNCJXZNW8dLzRPZ-2" value="AWS CodePipeline" style="sketch=0;points=[[0,0,0],[0.25,0,0],[0.5,0,0],[0.75,0,0],[1,0,0],[0,1,0],[0.25,1,0],[0.5,1,0],[0.75,1,0],[1,1,0],[0,0.25,0],[0,0.5,0],[0,0.75,0],[1,0.25,0],[1,0.5,0],[1,0.75,0]];outlineConnect=0;fontColor=#232F3E;fillColor=#C925D1;strokeColor=#ffffff;dashed=0;verticalLabelPosition=bottom;verticalAlign=top;align=center;html=1;fontSize=12;fontStyle=0;aspect=fixed;shape=mxgraph.aws4.resourceIcon;resIcon=mxgraph.aws4.codepipeline;" vertex="1" parent="nTbA3EUPLM0Qqg01UbJy-14">
          <mxGeometry x="295" y="107" width="83" height="83" as="geometry" />
        </mxCell>
        <mxCell id="nTbA3EUPLM0Qqg01UbJy-32" style="edgeStyle=orthogonalEdgeStyle;rounded=0;orthogonalLoop=1;jettySize=auto;html=1;" edge="1" parent="nTbA3EUPLM0Qqg01UbJy-14" source="QebvsbNCJXZNW8dLzRPZ-3" target="nTbA3EUPLM0Qqg01UbJy-20">
          <mxGeometry relative="1" as="geometry">
            <Array as="points">
              <mxPoint x="695" y="390" />
              <mxPoint x="695" y="390" />
            </Array>
          </mxGeometry>
        </mxCell>
        <mxCell id="QebvsbNCJXZNW8dLzRPZ-3" value="AWS CodeDeploy" style="sketch=0;points=[[0,0,0],[0.25,0,0],[0.5,0,0],[0.75,0,0],[1,0,0],[0,1,0],[0.25,1,0],[0.5,1,0],[0.75,1,0],[1,1,0],[0,0.25,0],[0,0.5,0],[0,0.75,0],[1,0.25,0],[1,0.5,0],[1,0.75,0]];outlineConnect=0;fontColor=#232F3E;fillColor=#C925D1;strokeColor=#ffffff;dashed=0;verticalLabelPosition=bottom;verticalAlign=top;align=center;html=1;fontSize=12;fontStyle=0;aspect=fixed;shape=mxgraph.aws4.resourceIcon;resIcon=mxgraph.aws4.codedeploy;" vertex="1" parent="nTbA3EUPLM0Qqg01UbJy-14">
          <mxGeometry x="656" y="108.5" width="80" height="80" as="geometry" />
        </mxCell>
        <mxCell id="nTbA3EUPLM0Qqg01UbJy-16" style="edgeStyle=orthogonalEdgeStyle;rounded=0;orthogonalLoop=1;jettySize=auto;html=1;" edge="1" parent="nTbA3EUPLM0Qqg01UbJy-14" source="QebvsbNCJXZNW8dLzRPZ-4" target="QebvsbNCJXZNW8dLzRPZ-3">
          <mxGeometry relative="1" as="geometry" />
        </mxCell>
        <mxCell id="nTbA3EUPLM0Qqg01UbJy-31" style="edgeStyle=orthogonalEdgeStyle;rounded=0;orthogonalLoop=1;jettySize=auto;html=1;" edge="1" parent="nTbA3EUPLM0Qqg01UbJy-14" source="QebvsbNCJXZNW8dLzRPZ-4" target="nTbA3EUPLM0Qqg01UbJy-10">
          <mxGeometry relative="1" as="geometry" />
        </mxCell>
        <mxCell id="QebvsbNCJXZNW8dLzRPZ-4" value="AWS CodeBuild" style="sketch=0;points=[[0,0,0],[0.25,0,0],[0.5,0,0],[0.75,0,0],[1,0,0],[0,1,0],[0.25,1,0],[0.5,1,0],[0.75,1,0],[1,1,0],[0,0.25,0],[0,0.5,0],[0,0.75,0],[1,0.25,0],[1,0.5,0],[1,0.75,0]];outlineConnect=0;fontColor=#232F3E;fillColor=#C925D1;strokeColor=#ffffff;dashed=0;verticalLabelPosition=bottom;verticalAlign=top;align=center;html=1;fontSize=12;fontStyle=0;aspect=fixed;shape=mxgraph.aws4.resourceIcon;resIcon=mxgraph.aws4.codebuild;" vertex="1" parent="nTbA3EUPLM0Qqg01UbJy-14">
          <mxGeometry x="454" y="107" width="83" height="83" as="geometry" />
        </mxCell>
        <mxCell id="nTbA3EUPLM0Qqg01UbJy-15" style="edgeStyle=orthogonalEdgeStyle;rounded=0;orthogonalLoop=1;jettySize=auto;html=1;entryX=0;entryY=0.5;entryDx=0;entryDy=0;entryPerimeter=0;" edge="1" parent="nTbA3EUPLM0Qqg01UbJy-14" source="QebvsbNCJXZNW8dLzRPZ-2" target="QebvsbNCJXZNW8dLzRPZ-4">
          <mxGeometry relative="1" as="geometry" />
        </mxCell>
        <mxCell id="nTbA3EUPLM0Qqg01UbJy-20" value="AWS ECS with EC2 Provider" style="points=[[0,0],[0.25,0],[0.5,0],[0.75,0],[1,0],[1,0.25],[1,0.5],[1,0.75],[1,1],[0.75,1],[0.5,1],[0.25,1],[0,1],[0,0.75],[0,0.5],[0,0.25]];outlineConnect=0;gradientColor=none;html=1;whiteSpace=wrap;fontSize=12;fontStyle=0;container=1;pointerEvents=0;collapsible=0;recursiveResize=0;shape=mxgraph.aws4.group;grIcon=mxgraph.aws4.group_ec2_instance_contents;strokeColor=#D86613;fillColor=none;verticalAlign=top;align=left;spacingLeft=30;fontColor=#D86613;dashed=0;" vertex="1" parent="nTbA3EUPLM0Qqg01UbJy-14">
          <mxGeometry x="242" y="438" width="543" height="130" as="geometry" />
        </mxCell>
        <mxCell id="nTbA3EUPLM0Qqg01UbJy-8" value="Container" style="sketch=0;outlineConnect=0;fontColor=#232F3E;gradientColor=none;fillColor=#ED7100;strokeColor=none;dashed=0;verticalLabelPosition=bottom;verticalAlign=top;align=center;html=1;fontSize=12;fontStyle=0;aspect=fixed;pointerEvents=1;shape=mxgraph.aws4.container_2;" vertex="1" parent="nTbA3EUPLM0Qqg01UbJy-20">
          <mxGeometry x="423" y="49.5" width="56" height="31" as="geometry" />
        </mxCell>
        <mxCell id="nTbA3EUPLM0Qqg01UbJy-24" style="edgeStyle=orthogonalEdgeStyle;rounded=0;orthogonalLoop=1;jettySize=auto;html=1;" edge="1" parent="nTbA3EUPLM0Qqg01UbJy-20" source="nTbA3EUPLM0Qqg01UbJy-6" target="nTbA3EUPLM0Qqg01UbJy-23">
          <mxGeometry relative="1" as="geometry" />
        </mxCell>
        <mxCell id="nTbA3EUPLM0Qqg01UbJy-6" value="Service" style="sketch=0;outlineConnect=0;fontColor=#232F3E;gradientColor=none;fillColor=#ED7100;strokeColor=none;dashed=0;verticalLabelPosition=bottom;verticalAlign=top;align=center;html=1;fontSize=12;fontStyle=0;aspect=fixed;pointerEvents=1;shape=mxgraph.aws4.ecs_service;" vertex="1" parent="nTbA3EUPLM0Qqg01UbJy-20">
          <mxGeometry x="93" y="41" width="39" height="48" as="geometry" />
        </mxCell>
        <mxCell id="nTbA3EUPLM0Qqg01UbJy-25" style="edgeStyle=orthogonalEdgeStyle;rounded=0;orthogonalLoop=1;jettySize=auto;html=1;" edge="1" parent="nTbA3EUPLM0Qqg01UbJy-20" source="nTbA3EUPLM0Qqg01UbJy-23" target="nTbA3EUPLM0Qqg01UbJy-8">
          <mxGeometry relative="1" as="geometry" />
        </mxCell>
        <mxCell id="nTbA3EUPLM0Qqg01UbJy-23" value="Task" style="sketch=0;outlineConnect=0;fontColor=#232F3E;gradientColor=none;fillColor=#ED7100;strokeColor=none;dashed=0;verticalLabelPosition=bottom;verticalAlign=top;align=center;html=1;fontSize=12;fontStyle=0;aspect=fixed;pointerEvents=1;shape=mxgraph.aws4.ecs_task;" vertex="1" parent="nTbA3EUPLM0Qqg01UbJy-20">
          <mxGeometry x="263" y="41" width="37" height="48" as="geometry" />
        </mxCell>
        <mxCell id="nTbA3EUPLM0Qqg01UbJy-34" style="edgeStyle=orthogonalEdgeStyle;rounded=0;orthogonalLoop=1;jettySize=auto;html=1;startArrow=classic;startFill=1;endArrow=none;endFill=0;" edge="1" parent="nTbA3EUPLM0Qqg01UbJy-14" source="nTbA3EUPLM0Qqg01UbJy-10" target="nTbA3EUPLM0Qqg01UbJy-20">
          <mxGeometry relative="1" as="geometry">
            <Array as="points">
              <mxPoint x="496" y="420" />
              <mxPoint x="496" y="420" />
            </Array>
          </mxGeometry>
        </mxCell>
        <mxCell id="nTbA3EUPLM0Qqg01UbJy-10" value="Elastic Container Registry" style="sketch=0;points=[[0,0,0],[0.25,0,0],[0.5,0,0],[0.75,0,0],[1,0,0],[0,1,0],[0.25,1,0],[0.5,1,0],[0.75,1,0],[1,1,0],[0,0.25,0],[0,0.5,0],[0,0.75,0],[1,0.25,0],[1,0.5,0],[1,0.75,0]];outlineConnect=0;fontColor=#232F3E;fillColor=#ED7100;strokeColor=#ffffff;dashed=0;verticalLabelPosition=bottom;verticalAlign=top;align=center;html=1;fontSize=12;fontStyle=0;aspect=fixed;shape=mxgraph.aws4.resourceIcon;resIcon=mxgraph.aws4.ecr;" vertex="1" parent="nTbA3EUPLM0Qqg01UbJy-14">
          <mxGeometry x="456.5" y="280" width="78" height="78" as="geometry" />
        </mxCell>
        <mxCell id="nTbA3EUPLM0Qqg01UbJy-11" value="&lt;span style=&quot;background-color: rgb(255, 255, 255);&quot;&gt;AWS RDS&lt;/span&gt;" style="sketch=0;outlineConnect=0;fontColor=#232F3E;gradientColor=none;fillColor=#C925D1;strokeColor=none;dashed=0;verticalLabelPosition=bottom;verticalAlign=top;align=center;html=1;fontSize=12;fontStyle=0;aspect=fixed;pointerEvents=1;shape=mxgraph.aws4.rds_postgresql_instance;" vertex="1" parent="nTbA3EUPLM0Qqg01UbJy-14">
          <mxGeometry x="67" y="464" width="78" height="78" as="geometry" />
        </mxCell>
        <mxCell id="nTbA3EUPLM0Qqg01UbJy-73" style="edgeStyle=orthogonalEdgeStyle;rounded=0;orthogonalLoop=1;jettySize=auto;html=1;" edge="1" parent="nTbA3EUPLM0Qqg01UbJy-14" source="nTbA3EUPLM0Qqg01UbJy-37" target="QebvsbNCJXZNW8dLzRPZ-2">
          <mxGeometry relative="1" as="geometry" />
        </mxCell>
        <mxCell id="nTbA3EUPLM0Qqg01UbJy-74" value="Get pipeline status" style="edgeLabel;html=1;align=center;verticalAlign=middle;resizable=0;points=[];" connectable="0" vertex="1" parent="nTbA3EUPLM0Qqg01UbJy-73">
          <mxGeometry x="-0.0957" y="2" relative="1" as="geometry">
            <mxPoint y="-1" as="offset" />
          </mxGeometry>
        </mxCell>
        <mxCell id="nTbA3EUPLM0Qqg01UbJy-75" style="edgeStyle=orthogonalEdgeStyle;rounded=0;orthogonalLoop=1;jettySize=auto;html=1;" edge="1" parent="nTbA3EUPLM0Qqg01UbJy-14" source="nTbA3EUPLM0Qqg01UbJy-37" target="nTbA3EUPLM0Qqg01UbJy-70">
          <mxGeometry relative="1" as="geometry" />
        </mxCell>
        <mxCell id="nTbA3EUPLM0Qqg01UbJy-76" value="Publish status" style="edgeLabel;html=1;align=center;verticalAlign=middle;resizable=0;points=[];" connectable="0" vertex="1" parent="nTbA3EUPLM0Qqg01UbJy-75">
          <mxGeometry x="0.0477" y="-2" relative="1" as="geometry">
            <mxPoint y="2" as="offset" />
          </mxGeometry>
        </mxCell>
        <mxCell id="nTbA3EUPLM0Qqg01UbJy-37" value="Lambda" style="sketch=0;points=[[0,0,0],[0.25,0,0],[0.5,0,0],[0.75,0,0],[1,0,0],[0,1,0],[0.25,1,0],[0.5,1,0],[0.75,1,0],[1,1,0],[0,0.25,0],[0,0.5,0],[0,0.75,0],[1,0.25,0],[1,0.5,0],[1,0.75,0]];outlineConnect=0;fontColor=#232F3E;fillColor=#ED7100;strokeColor=#ffffff;dashed=0;verticalLabelPosition=bottom;verticalAlign=top;align=center;html=1;fontSize=12;fontStyle=0;aspect=fixed;shape=mxgraph.aws4.resourceIcon;resIcon=mxgraph.aws4.lambda;" vertex="1" parent="nTbA3EUPLM0Qqg01UbJy-14">
          <mxGeometry x="297.5" y="280" width="78" height="78" as="geometry" />
        </mxCell>
        <mxCell id="nTbA3EUPLM0Qqg01UbJy-70" value="API Gateway" style="sketch=0;points=[[0,0,0],[0.25,0,0],[0.5,0,0],[0.75,0,0],[1,0,0],[0,1,0],[0.25,1,0],[0.5,1,0],[0.75,1,0],[1,1,0],[0,0.25,0],[0,0.5,0],[0,0.75,0],[1,0.25,0],[1,0.5,0],[1,0.75,0]];outlineConnect=0;fontColor=#232F3E;fillColor=#E7157B;strokeColor=#ffffff;dashed=0;verticalLabelPosition=bottom;verticalAlign=top;align=center;html=1;fontSize=12;fontStyle=0;aspect=fixed;shape=mxgraph.aws4.resourceIcon;resIcon=mxgraph.aws4.api_gateway;" vertex="1" parent="nTbA3EUPLM0Qqg01UbJy-14">
          <mxGeometry x="67" y="280" width="78" height="78" as="geometry" />
        </mxCell>
        <mxCell id="nTbA3EUPLM0Qqg01UbJy-38" style="edgeStyle=orthogonalEdgeStyle;rounded=0;orthogonalLoop=1;jettySize=auto;html=1;startArrow=classic;startFill=1;endArrow=classic;endFill=1;" edge="1" parent="1" source="nTbA3EUPLM0Qqg01UbJy-12" target="nTbA3EUPLM0Qqg01UbJy-11">
          <mxGeometry relative="1" as="geometry">
            <Array as="points">
              <mxPoint x="900" y="789" />
            </Array>
          </mxGeometry>
        </mxCell>
        <mxCell id="nTbA3EUPLM0Qqg01UbJy-69" value="User requests info" style="edgeLabel;html=1;align=center;verticalAlign=middle;resizable=0;points=[];" connectable="0" vertex="1" parent="nTbA3EUPLM0Qqg01UbJy-38">
          <mxGeometry x="0.2108" y="-1" relative="1" as="geometry">
            <mxPoint x="50" y="1" as="offset" />
          </mxGeometry>
        </mxCell>
        <mxCell id="nTbA3EUPLM0Qqg01UbJy-39" style="edgeStyle=orthogonalEdgeStyle;rounded=0;orthogonalLoop=1;jettySize=auto;html=1;entryX=0.5;entryY=0;entryDx=0;entryDy=0;" edge="1" parent="1" source="nTbA3EUPLM0Qqg01UbJy-20" target="nTbA3EUPLM0Qqg01UbJy-12">
          <mxGeometry relative="1" as="geometry" />
        </mxCell>
        <mxCell id="nTbA3EUPLM0Qqg01UbJy-65" style="edgeStyle=orthogonalEdgeStyle;rounded=0;orthogonalLoop=1;jettySize=auto;html=1;" edge="1" parent="1" source="nTbA3EUPLM0Qqg01UbJy-45" target="nTbA3EUPLM0Qqg01UbJy-3">
          <mxGeometry relative="1" as="geometry">
            <Array as="points">
              <mxPoint x="36" y="790" />
            </Array>
          </mxGeometry>
        </mxCell>
        <mxCell id="nTbA3EUPLM0Qqg01UbJy-66" value="Build Tracker image" style="edgeLabel;html=1;align=center;verticalAlign=middle;resizable=0;points=[];" connectable="0" vertex="1" parent="nTbA3EUPLM0Qqg01UbJy-65">
          <mxGeometry x="0.2592" y="1" relative="1" as="geometry">
            <mxPoint x="29" y="-1" as="offset" />
          </mxGeometry>
        </mxCell>
        <mxCell id="nTbA3EUPLM0Qqg01UbJy-45" value="GitHub Action&#xa;build_tracker_github.yml" style="shape=image;verticalLabelPosition=bottom;labelBackgroundColor=default;verticalAlign=top;aspect=fixed;imageAspect=0;image=data:image/svg+xml,PHN2ZyB4bWxucz0iaHR0cDovL3d3dy53My5vcmcvMjAwMC9zdmciIHZpZXdCb3g9IjAgMCAxMjggMTI4Ij48cGF0aCBkPSJNMjYuNjY2IDBDMTEuOTcgMCAwIDExLjk3IDAgMjYuNjY2YzAgMTIuODcgOS4xODEgMjMuNjUxIDIxLjMzNCAyNi4xM3YzNy44N2MwIDExLjc3IDkuNjggMjEuMzM0IDIxLjMzMiAyMS4zMzRoLjE5NWMxLjMwMiA5LjAyMyA5LjEgMTYgMTguNDczIDE2QzcxLjYxMiAxMjggODAgMTE5LjYxMiA4MCAxMDkuMzM0cy04LjM4OC0xOC42NjgtMTguNjY2LTE4LjY2OGMtOS4zNzIgMC0xNy4xNyA2Ljk3Ny0xOC40NzMgMTZoLS4xOTVjLTguNzM3IDAtMTYtNy4xNTItMTYtMTZWNjMuNzc5YTE4LjUxNCAxOC41MTQgMCAwIDAgMTMuMjQgNS41NTVoMi45NTVjMS4zMDMgOS4wMjMgOS4xIDE2IDE4LjQ3MyAxNiA5LjM3MiAwIDE3LjE2OS02Ljk3NyAxOC40Ny0xNmgxMS4wNTdjMS4zMDMgOS4wMjMgOS4xIDE2IDE4LjQ3MyAxNiAxMC4yNzggMCAxOC42NjYtOC4zOSAxOC42NjYtMTguNjY4QzEyOCA1Ni4zODggMTE5LjYxMiA0OCAxMDkuMzM0IDQ4Yy05LjM3MyAwLTE3LjE3MSA2Ljk3Ny0xOC40NzMgMTZINzkuODA1Yy0xLjMwMS05LjAyMy05LjA5OC0xNi0xOC40NzEtMTZzLTE3LjE3MSA2Ljk3Ny0xOC40NzMgMTZoLTIuOTU1Yy02LjQzMyAwLTExLjc5My00LjU4OS0xMi45ODgtMTAuNjcyIDE0LjU4LS4xMzYgMjYuNDE2LTEyLjA1IDI2LjQxNi0yNi42NjJDNTMuMzM0IDExLjk3IDQxLjM2MiAwIDI2LjY2NiAwem0wIDUuMzM0QTIxLjI5MiAyMS4yOTIgMCAwIDEgNDggMjYuNjY2IDIxLjI5NCAyMS4yOTQgMCAwIDEgMjYuNjY2IDQ4IDIxLjI5MiAyMS4yOTIgMCAwIDEgNS4zMzQgMjYuNjY2IDIxLjI5IDIxLjI5IDAgMCAxIDI2LjY2NiA1LjMzNHptLTUuMjE1IDcuNTQxQzE4LjY3IDEyLjg4OSAxNiAxNS4xMjMgMTYgMTguMTY2djE3LjA0M2MwIDQuMDQzIDQuNzA5IDYuNjYzIDguMTQ1IDQuNTMzbDEzLjYzNC04LjQ1NWMzLjI1Ny0yLjAyIDMuMjc0LTcuMDAyLjAzMi05LjA0NWwtMTMuNjM1LTguNTlhNS4wMjQgNS4wMjQgMCAwIDAtMi43MjUtLjc3N3ptLS4xMTcgNS4yOTEgMTMuNjM1IDguNTg4LTEzLjYzNSA4LjQ1NVYxOC4xNjZ6bTQwIDM1LjE2OGExMy4yOSAxMy4yOSAwIDAgMSAxMy4zMzIgMTMuMzMyQTEzLjI5MyAxMy4yOTMgMCAwIDEgNjEuMzM0IDgwIDEzLjI5NCAxMy4yOTQgMCAwIDEgNDggNjYuNjY2YTEzLjI5MyAxMy4yOTMgMCAwIDEgMTMuMzM0LTEzLjMzMnptNDggMGExMy4yOSAxMy4yOSAwIDAgMSAxMy4zMzIgMTMuMzMyQTEzLjI5MyAxMy4yOTMgMCAwIDEgMTA5LjMzNCA4MCAxMy4yOTQgMTMuMjk0IDAgMCAxIDk2IDY2LjY2NmExMy4yOTMgMTMuMjkzIDAgMCAxIDEzLjMzNC0xMy4zMzJ6bS00Mi41NjggNi45NTFhMi42NjcgMi42NjcgMCAwIDAtMS44ODcuNzhsLTYuMyA2LjI5NC0yLjA5My0yLjA4NGEyLjY2NyAyLjY2NyAwIDAgMC0zLjc3MS4wMDYgMi42NjcgMi42NjcgMCAwIDAgLjAwOCAzLjc3MmwzLjk3NCAzLjk2YTIuNjY3IDIuNjY3IDAgMCAwIDMuNzY2LS4wMDFsOC4xODUtOC4xNzRhMi42NjcgMi42NjcgMCAwIDAgLjAwMi0zLjc3MiAyLjY2NyAyLjY2NyAwIDAgMC0xLjg4NC0uNzh6bTQ4IDBhMi42NjcgMi42NjcgMCAwIDAtMS44ODcuNzhsLTYuMyA2LjI5NC0yLjA5My0yLjA4NGEyLjY2NyAyLjY2NyAwIDAgMC0zLjc3MS4wMDYgMi42NjcgMi42NjcgMCAwIDAgLjAwOCAzLjc3MmwzLjk3NCAzLjk2YTIuNjY3IDIuNjY3IDAgMCAwIDMuNzY2LS4wMDFsOC4xODUtOC4xNzRhMi42NjcgMi42NjcgMCAwIDAgLjAwMi0zLjc3MiAyLjY2NyAyLjY2NyAwIDAgMC0xLjg4NC0uNzh6TTYxLjMzNCA5NmExMy4yOTMgMTMuMjkzIDAgMCAxIDEzLjMzMiAxMy4zMzQgMTMuMjkgMTMuMjkgMCAwIDEtMTMuMzMyIDEzLjMzMkExMy4yOTMgMTMuMjkzIDAgMCAxIDQ4IDEwOS4zMzQgMTMuMjk0IDEzLjI5NCAwIDAgMSA2MS4zMzQgOTZ6TTU2IDEwNS4zMzRjLTIuMTkzIDAtNCAxLjgwNy00IDQgMCAyLjE5NSAxLjgwOCA0IDQgNHM0LTEuODA1IDQtNGMwLTIuMTkzLTEuODA3LTQtNC00em0xMC42NjYgMGMtMi4xOTMgMC00IDEuODA3LTQgNCAwIDIuMTk1IDEuODA4IDQgNCA0czQtMS44MDUgNC00YzAtMi4xOTMtMS44MDctNC00LTR6TTU2IDEwOGMuNzUgMCAxLjMzNC41ODUgMS4zMzQgMS4zMzQgMCAuNzUzLS41ODMgMS4zMzItMS4zMzQgMS4zMzItLjc1IDAtMS4zMzQtLjU4LTEuMzM0LTEuMzMyIDAtLjc1LjU4NS0xLjMzNCAxLjMzNC0xLjMzNHptMTAuNjY2IDBjLjc1IDAgMS4zMzQuNTg1IDEuMzM0IDEuMzM0IDAgLjc1My0uNTgzIDEuMzMyLTEuMzM0IDEuMzMyLS43NSAwLTEuMzMyLS41OC0xLjMzMi0xLjMzMiAwLS43NS41ODMtMS4zMzQgMS4zMzItMS4zMzR6IiBmaWxsPSIjMjA4OGZmIi8+PHBhdGggZD0iTTEwOS4zMzQgOTAuNjY2Yy05LjM4MyAwLTE3LjE4OCA2Ljk5My0xOC40NzcgMTYuMDMxYTIuNjY3IDIuNjY3IDAgMCAwLS4yNjUtLjAxMWwtMi43LjA5YTIuNjY3IDIuNjY3IDAgMCAwLTIuNTc4IDIuNzUxIDIuNjY3IDIuNjY3IDAgMCAwIDIuNzUyIDIuNTc4bDIuNy0uMDg3YTIuNjY3IDIuNjY3IDAgMCAwIC4wOTctLjAwNkM5Mi4xNyAxMjEuMDI5IDk5Ljk2NSAxMjggMTA5LjMzNCAxMjhjMTAuMjc4IDAgMTguNjY2LTguMzg4IDE4LjY2Ni0xOC42NjZzLTguMzg4LTE4LjY2OC0xOC42NjYtMTguNjY4em0wIDUuMzM0YTEzLjI5MyAxMy4yOTMgMCAwIDEgMTMuMzMyIDEzLjMzNCAxMy4yOSAxMy4yOSAwIDAgMS0xMy4zMzIgMTMuMzMyQTEzLjI5MyAxMy4yOTMgMCAwIDEgOTYgMTA5LjMzNCAxMy4yOTQgMTMuMjk0IDAgMCAxIDEwOS4zMzQgOTZ6IiBmaWxsPSIjNzliOGZmIi8+PC9zdmc+;" vertex="1" parent="1">
          <mxGeometry x="1" y="568" width="70" height="70" as="geometry" />
        </mxCell>
        <mxCell id="nTbA3EUPLM0Qqg01UbJy-49" style="edgeStyle=orthogonalEdgeStyle;rounded=0;orthogonalLoop=1;jettySize=auto;html=1;" edge="1" parent="1" source="nTbA3EUPLM0Qqg01UbJy-46" target="nTbA3EUPLM0Qqg01UbJy-11">
          <mxGeometry relative="1" as="geometry" />
        </mxCell>
        <mxCell id="nTbA3EUPLM0Qqg01UbJy-52" value="Populate DB" style="edgeLabel;html=1;align=center;verticalAlign=middle;resizable=0;points=[];" connectable="0" vertex="1" parent="nTbA3EUPLM0Qqg01UbJy-49">
          <mxGeometry x="-0.207" y="-3" relative="1" as="geometry">
            <mxPoint x="22" y="-3" as="offset" />
          </mxGeometry>
        </mxCell>
        <mxCell id="nTbA3EUPLM0Qqg01UbJy-67" style="edgeStyle=orthogonalEdgeStyle;rounded=0;orthogonalLoop=1;jettySize=auto;html=1;" edge="1" parent="1" source="nTbA3EUPLM0Qqg01UbJy-46" target="nTbA3EUPLM0Qqg01UbJy-3">
          <mxGeometry relative="1" as="geometry">
            <Array as="points">
              <mxPoint x="566" y="790" />
            </Array>
          </mxGeometry>
        </mxCell>
        <mxCell id="nTbA3EUPLM0Qqg01UbJy-68" value="Run with docker image" style="edgeLabel;html=1;align=center;verticalAlign=middle;resizable=0;points=[];" connectable="0" vertex="1" parent="nTbA3EUPLM0Qqg01UbJy-67">
          <mxGeometry x="0.387" y="1" relative="1" as="geometry">
            <mxPoint x="8" as="offset" />
          </mxGeometry>
        </mxCell>
        <mxCell id="nTbA3EUPLM0Qqg01UbJy-46" value="GitHub Action&#xa;run_tracker_github.yml" style="shape=image;verticalLabelPosition=bottom;labelBackgroundColor=default;verticalAlign=top;aspect=fixed;imageAspect=0;image=data:image/svg+xml,PHN2ZyB4bWxucz0iaHR0cDovL3d3dy53My5vcmcvMjAwMC9zdmciIHZpZXdCb3g9IjAgMCAxMjggMTI4Ij48cGF0aCBkPSJNMjYuNjY2IDBDMTEuOTcgMCAwIDExLjk3IDAgMjYuNjY2YzAgMTIuODcgOS4xODEgMjMuNjUxIDIxLjMzNCAyNi4xM3YzNy44N2MwIDExLjc3IDkuNjggMjEuMzM0IDIxLjMzMiAyMS4zMzRoLjE5NWMxLjMwMiA5LjAyMyA5LjEgMTYgMTguNDczIDE2QzcxLjYxMiAxMjggODAgMTE5LjYxMiA4MCAxMDkuMzM0cy04LjM4OC0xOC42NjgtMTguNjY2LTE4LjY2OGMtOS4zNzIgMC0xNy4xNyA2Ljk3Ny0xOC40NzMgMTZoLS4xOTVjLTguNzM3IDAtMTYtNy4xNTItMTYtMTZWNjMuNzc5YTE4LjUxNCAxOC41MTQgMCAwIDAgMTMuMjQgNS41NTVoMi45NTVjMS4zMDMgOS4wMjMgOS4xIDE2IDE4LjQ3MyAxNiA5LjM3MiAwIDE3LjE2OS02Ljk3NyAxOC40Ny0xNmgxMS4wNTdjMS4zMDMgOS4wMjMgOS4xIDE2IDE4LjQ3MyAxNiAxMC4yNzggMCAxOC42NjYtOC4zOSAxOC42NjYtMTguNjY4QzEyOCA1Ni4zODggMTE5LjYxMiA0OCAxMDkuMzM0IDQ4Yy05LjM3MyAwLTE3LjE3MSA2Ljk3Ny0xOC40NzMgMTZINzkuODA1Yy0xLjMwMS05LjAyMy05LjA5OC0xNi0xOC40NzEtMTZzLTE3LjE3MSA2Ljk3Ny0xOC40NzMgMTZoLTIuOTU1Yy02LjQzMyAwLTExLjc5My00LjU4OS0xMi45ODgtMTAuNjcyIDE0LjU4LS4xMzYgMjYuNDE2LTEyLjA1IDI2LjQxNi0yNi42NjJDNTMuMzM0IDExLjk3IDQxLjM2MiAwIDI2LjY2NiAwem0wIDUuMzM0QTIxLjI5MiAyMS4yOTIgMCAwIDEgNDggMjYuNjY2IDIxLjI5NCAyMS4yOTQgMCAwIDEgMjYuNjY2IDQ4IDIxLjI5MiAyMS4yOTIgMCAwIDEgNS4zMzQgMjYuNjY2IDIxLjI5IDIxLjI5IDAgMCAxIDI2LjY2NiA1LjMzNHptLTUuMjE1IDcuNTQxQzE4LjY3IDEyLjg4OSAxNiAxNS4xMjMgMTYgMTguMTY2djE3LjA0M2MwIDQuMDQzIDQuNzA5IDYuNjYzIDguMTQ1IDQuNTMzbDEzLjYzNC04LjQ1NWMzLjI1Ny0yLjAyIDMuMjc0LTcuMDAyLjAzMi05LjA0NWwtMTMuNjM1LTguNTlhNS4wMjQgNS4wMjQgMCAwIDAtMi43MjUtLjc3N3ptLS4xMTcgNS4yOTEgMTMuNjM1IDguNTg4LTEzLjYzNSA4LjQ1NVYxOC4xNjZ6bTQwIDM1LjE2OGExMy4yOSAxMy4yOSAwIDAgMSAxMy4zMzIgMTMuMzMyQTEzLjI5MyAxMy4yOTMgMCAwIDEgNjEuMzM0IDgwIDEzLjI5NCAxMy4yOTQgMCAwIDEgNDggNjYuNjY2YTEzLjI5MyAxMy4yOTMgMCAwIDEgMTMuMzM0LTEzLjMzMnptNDggMGExMy4yOSAxMy4yOSAwIDAgMSAxMy4zMzIgMTMuMzMyQTEzLjI5MyAxMy4yOTMgMCAwIDEgMTA5LjMzNCA4MCAxMy4yOTQgMTMuMjk0IDAgMCAxIDk2IDY2LjY2NmExMy4yOTMgMTMuMjkzIDAgMCAxIDEzLjMzNC0xMy4zMzJ6bS00Mi41NjggNi45NTFhMi42NjcgMi42NjcgMCAwIDAtMS44ODcuNzhsLTYuMyA2LjI5NC0yLjA5My0yLjA4NGEyLjY2NyAyLjY2NyAwIDAgMC0zLjc3MS4wMDYgMi42NjcgMi42NjcgMCAwIDAgLjAwOCAzLjc3MmwzLjk3NCAzLjk2YTIuNjY3IDIuNjY3IDAgMCAwIDMuNzY2LS4wMDFsOC4xODUtOC4xNzRhMi42NjcgMi42NjcgMCAwIDAgLjAwMi0zLjc3MiAyLjY2NyAyLjY2NyAwIDAgMC0xLjg4NC0uNzh6bTQ4IDBhMi42NjcgMi42NjcgMCAwIDAtMS44ODcuNzhsLTYuMyA2LjI5NC0yLjA5My0yLjA4NGEyLjY2NyAyLjY2NyAwIDAgMC0zLjc3MS4wMDYgMi42NjcgMi42NjcgMCAwIDAgLjAwOCAzLjc3MmwzLjk3NCAzLjk2YTIuNjY3IDIuNjY3IDAgMCAwIDMuNzY2LS4wMDFsOC4xODUtOC4xNzRhMi42NjcgMi42NjcgMCAwIDAgLjAwMi0zLjc3MiAyLjY2NyAyLjY2NyAwIDAgMC0xLjg4NC0uNzh6TTYxLjMzNCA5NmExMy4yOTMgMTMuMjkzIDAgMCAxIDEzLjMzMiAxMy4zMzQgMTMuMjkgMTMuMjkgMCAwIDEtMTMuMzMyIDEzLjMzMkExMy4yOTMgMTMuMjkzIDAgMCAxIDQ4IDEwOS4zMzQgMTMuMjk0IDEzLjI5NCAwIDAgMSA2MS4zMzQgOTZ6TTU2IDEwNS4zMzRjLTIuMTkzIDAtNCAxLjgwNy00IDQgMCAyLjE5NSAxLjgwOCA0IDQgNHM0LTEuODA1IDQtNGMwLTIuMTkzLTEuODA3LTQtNC00em0xMC42NjYgMGMtMi4xOTMgMC00IDEuODA3LTQgNCAwIDIuMTk1IDEuODA4IDQgNCA0czQtMS44MDUgNC00YzAtMi4xOTMtMS44MDctNC00LTR6TTU2IDEwOGMuNzUgMCAxLjMzNC41ODUgMS4zMzQgMS4zMzQgMCAuNzUzLS41ODMgMS4zMzItMS4zMzQgMS4zMzItLjc1IDAtMS4zMzQtLjU4LTEuMzM0LTEuMzMyIDAtLjc1LjU4NS0xLjMzNCAxLjMzNC0xLjMzNHptMTAuNjY2IDBjLjc1IDAgMS4zMzQuNTg1IDEuMzM0IDEuMzM0IDAgLjc1My0uNTgzIDEuMzMyLTEuMzM0IDEuMzMyLS43NSAwLTEuMzMyLS41OC0xLjMzMi0xLjMzMiAwLS43NS41ODMtMS4zMzQgMS4zMzItMS4zMzR6IiBmaWxsPSIjMjA4OGZmIi8+PHBhdGggZD0iTTEwOS4zMzQgOTAuNjY2Yy05LjM4MyAwLTE3LjE4OCA2Ljk5My0xOC40NzcgMTYuMDMxYTIuNjY3IDIuNjY3IDAgMCAwLS4yNjUtLjAxMWwtMi43LjA5YTIuNjY3IDIuNjY3IDAgMCAwLTIuNTc4IDIuNzUxIDIuNjY3IDIuNjY3IDAgMCAwIDIuNzUyIDIuNTc4bDIuNy0uMDg3YTIuNjY3IDIuNjY3IDAgMCAwIC4wOTctLjAwNkM5Mi4xNyAxMjEuMDI5IDk5Ljk2NSAxMjggMTA5LjMzNCAxMjhjMTAuMjc4IDAgMTguNjY2LTguMzg4IDE4LjY2Ni0xOC42NjZzLTguMzg4LTE4LjY2OC0xOC42NjYtMTguNjY4em0wIDUuMzM0YTEzLjI5MyAxMy4yOTMgMCAwIDEgMTMuMzMyIDEzLjMzNCAxMy4yOSAxMy4yOSAwIDAgMS0xMy4zMzIgMTMuMzMyQTEzLjI5MyAxMy4yOTMgMCAwIDEgOTYgMTA5LjMzNCAxMy4yOTQgMTMuMjk0IDAgMCAxIDEwOS4zMzQgOTZ6IiBmaWxsPSIjNzliOGZmIi8+PC9zdmc+;" vertex="1" parent="1">
          <mxGeometry x="531" y="568" width="70" height="70" as="geometry" />
        </mxCell>
        <mxCell id="nTbA3EUPLM0Qqg01UbJy-59" style="edgeStyle=orthogonalEdgeStyle;rounded=0;orthogonalLoop=1;jettySize=auto;html=1;" edge="1" parent="1" source="nTbA3EUPLM0Qqg01UbJy-57" target="QebvsbNCJXZNW8dLzRPZ-2">
          <mxGeometry relative="1" as="geometry" />
        </mxCell>
        <mxCell id="nTbA3EUPLM0Qqg01UbJy-61" value="" style="group" connectable="0" vertex="1" parent="1">
          <mxGeometry x="247.5" y="184.25" width="133" height="128.5" as="geometry" />
        </mxCell>
        <mxCell id="nTbA3EUPLM0Qqg01UbJy-57" value="" style="rhombus;whiteSpace=wrap;html=1;verticalAlign=top;labelBackgroundColor=#ffffff;" vertex="1" parent="nTbA3EUPLM0Qqg01UbJy-61">
          <mxGeometry width="133" height="128.5" as="geometry" />
        </mxCell>
        <mxCell id="nTbA3EUPLM0Qqg01UbJy-60" value="&lt;span style=&quot;color: rgb(0, 0, 0); font-family: Helvetica; font-style: normal; font-variant-ligatures: normal; font-variant-caps: normal; font-weight: 400; letter-spacing: normal; orphans: 2; text-indent: 0px; text-transform: none; widows: 2; word-spacing: 0px; -webkit-text-stroke-width: 0px; white-space: nowrap; text-decoration-thickness: initial; text-decoration-style: initial; text-decoration-color: initial; font-size: 11px;&quot;&gt;on push &amp;gt;&lt;/span&gt;&lt;div&gt;&lt;span style=&quot;color: rgb(0, 0, 0); font-family: Helvetica; font-style: normal; font-variant-ligatures: normal; font-variant-caps: normal; font-weight: 400; letter-spacing: normal; orphans: 2; text-indent: 0px; text-transform: none; widows: 2; word-spacing: 0px; -webkit-text-stroke-width: 0px; white-space: nowrap; text-decoration-thickness: initial; text-decoration-style: initial; text-decoration-color: initial; font-size: 11px;&quot;&gt;paths check &amp;gt;&lt;/span&gt;&lt;/div&gt;&lt;div&gt;&lt;span style=&quot;color: rgb(0, 0, 0); font-family: Helvetica; font-style: normal; font-variant-ligatures: normal; font-variant-caps: normal; font-weight: 400; letter-spacing: normal; orphans: 2; text-indent: 0px; text-transform: none; widows: 2; word-spacing: 0px; -webkit-text-stroke-width: 0px; white-space: nowrap; text-decoration-thickness: initial; text-decoration-style: initial; text-decoration-color: initial; font-size: 11px;&quot;&gt;if success &amp;gt;&lt;/span&gt;&lt;/div&gt;&lt;div&gt;&lt;span style=&quot;background-color: initial; font-size: 11px; text-wrap: nowrap;&quot;&gt;AWS CI/CD&lt;/span&gt;&lt;/div&gt;" style="text;whiteSpace=wrap;html=1;align=center;" vertex="1" parent="nTbA3EUPLM0Qqg01UbJy-61">
          <mxGeometry x="20.5" y="27.53571428571429" width="92" height="64.25" as="geometry" />
        </mxCell>
        <mxCell id="nTbA3EUPLM0Qqg01UbJy-82" style="edgeStyle=orthogonalEdgeStyle;rounded=0;orthogonalLoop=1;jettySize=auto;html=1;entryX=0.75;entryY=0;entryDx=0;entryDy=0;" edge="1" parent="1" source="nTbA3EUPLM0Qqg01UbJy-80" target="nTbA3EUPLM0Qqg01UbJy-1">
          <mxGeometry relative="1" as="geometry" />
        </mxCell>
        <mxCell id="nTbA3EUPLM0Qqg01UbJy-80" value="Create a README badge&#xa;for AWS CI/CD status" style="shape=image;verticalLabelPosition=bottom;labelBackgroundColor=default;verticalAlign=top;aspect=fixed;imageAspect=0;image=data:image/svg+xml,PHN2ZyB4bWxucz0iaHR0cDovL3d3dy53My5vcmcvMjAwMC9zdmciIGhlaWdodD0iNTgiIHdpZHRoPSIxOTgiIHZpZXdCb3g9IjAgMCAxOTggNTgiPjxyZWN0IGZpbGw9IiM1NTUiIGhlaWdodD0iNTgiIHdpZHRoPSI1NSIgeD0iMTQwIiByeD0iOCIvPjxnIHN0cm9rZS13aWR0aD0iOCIgc3Ryb2tlPSIjNTU1Ij48cGF0aCBkPSJNMTM1LjUgNTRhOCA4IDAgMCAwIDguNSAtOC41Ii8+PHJlY3QgZmlsbD0ibm9uZSIgaGVpZ2h0PSI1MCIgd2lkdGg9IjE5MCIgcng9IjgiIHk9IjQiIHg9IjQiLz48L2c+PGcgZmlsbD0iIzU1NSI+PHBhdGggZD0ibTIzLjkwNiAzMy42NDFjLjk1My0uMDgzIDEuOTA2LS4xNjcgMi44NTktLjI1LjEwOCAyLjA5OSAxLjUxMSA0LjEzOSAzLjU3OCA0LjcyMiAyLjQzOC44OTUgNS4zNTcuNzk5IDcuNTU5LS42NTggMS40OS0xLjEyOSAxLjg2MS0zLjY3NC4zMjQtNC45MjUtMS41NTctMS4zMjItMy42ODUtMS41MDQtNS41NzYtMi4wNTctMi4zNDMtLjU2NS00LjkxMi0xLjEzMy02LjYxMS0yLjk3OS0xLjgwNS0yLjA4OC0xLjYyNy01LjQ4NS4yOTItNy40NDMgMi4wNDEtMi4xMTMgNS4yMjItMi41NSA4LjAyLTIuMjc0IDIuNDYuMjQ0IDUuMDU4IDEuMzQzIDYuMjUyIDMuNjM1LjQyNi45MDggMS4wOTUgMi4yNDEuNjU2IDMuMTA4LS44ODguMTczLTEuODEuMTQ4LTIuNzE1LjI0NS0uMDc3LTIuMDg0LTEuNzI3LTQuMDczLTMuODYzLTQuMjM0LTEuOTAyLS4zMTctNC4wMi0uMjUyLTUuNjkxLjgwMi0xLjM5OC45ODktMS44NDkgMy4zNjMtLjM4MSA0LjQ5NCAxLjI4MSAxLjAxIDIuOTYyIDEuMTk5IDQuNDgyIDEuNjQyIDIuNjYuNjI3IDUuNjAyIDEuMTE4IDcuNTk2IDMuMTU4IDIgMi4xODggMS44OTMgNS44NC0uMDg4IDguMDEtMi4wMSAyLjMyLTUuMzA0IDIuOTcyLTguMjM3IDIuNzEzLTIuNTg1LS4xNDctNS4zMTktMS4wMjQtNi45MTYtMy4xODQtLjk4Ny0xLjI4OC0xLjUxNy0yLjkwNS0xLjU0Mi00LjUyMyIvPjxwYXRoIGQ9Im00NS45NTMgNDFjMC03LjYzNSAwLTE1LjI3MSAwLTIyLjkwNi45MzggMCAxLjg3NSAwIDIuODEzIDAgMCAyLjc0IDAgNS40NzkgMCA4LjIxOSAxLjM5MS0xLjcyMSAzLjY5LTIuNTIzIDUuODYtMi4yMzYgMS45NzUuMTU0IDQuMDMgMS4zNzEgNC41MTMgMy40MDIuNTA0IDEuOTczLjI3OCA0LjAyLjMzIDYuMDQgMCAyLjQ5NSAwIDQuOTg5IDAgNy40ODQtLjkzOCAwLTEuODc1IDAtMi44MTMgMC0uMDA5LTMuNjc1LjAxOC03LjM1MS0uMDE0LTExLjAzLS4wMjYtMS4zNDItLjYyNy0yLjgzNS0yLTMuMjgyLTIuMTg3LS44MDItNS4wNzcuMzkzLTUuNjA5IDIuNzczLS40MTcgMS43NjQtLjIxNiAzLjU4Ni0uMjY0IDUuMzgxIDAgMi4wNTEgMCA0LjEwMiAwIDYuMTUzLS45MzggMC0xLjg3NSAwLTIuODEzIDAiLz48cGF0aCBkPSJtNjMuNzgxIDIxLjMyOHYtMy4yMzRoMi44MTN2My4yMzR6bTAgMTkuNjcydi0xNi41OTRoMi44MTN2MTYuNTk0eiIvPjxwYXRoIGQ9Im04Mi4yNSAzNS42NTZjLjk2OS4xMiAxLjkzOC4yNCAyLjkwNi4zNTktLjcwMiAzLjQ2NC00LjM0OCA1Ljc2Ny03Ljc4MSA1LjM4Ni0zLjIzNS0uMDY2LTYuNDMtMi4zMjgtNy4wNi01LjU5OC0uODQzLTMuMzA3LS40MDQtNy4yODUgMi4xMDEtOS43ODQgMy4wODItMyA4LjY5OS0yLjYxOCAxMS4yMzUuODkyIDEuMzc0IDEuODUgMS42NzYgNC4yNjcgMS41NzggNi41MS00LjEyNSAwLTguMjUgMC0xMi4zNzUgMC0uMTQyIDIuODg5IDIuMjY3IDYgNS4zNDYgNS42NTggMS44ODEtLjE2MiAzLjYxMy0xLjU2NiA0LjA0NS0zLjQyM20tOS4yMzQtNC41NDdjMy4wODkgMCA2LjE3NyAwIDkuMjY2IDAgLjEyOS0yLjc3NC0yLjYxNi01LjQyMi01LjQxOS00LjcxMy0yLjE3NC40MjctMy45MTIgMi40NzQtMy44NDYgNC43MTMiLz48cGF0aCBkPSJtODguNjQgNDF2LTIyLjkwNmgyLjgxM3YyMi45MDZ6Ii8+PHBhdGggZD0ibTEwNi41OSA0MWMwLS42OTggMC0xLjM5NiAwLTIuMDk0LTEuNDEyIDIuNDQyLTQuNzc2IDMuMDY3LTcuMjMzIDEuOTQ5LTIuMzc4LTEuMDItMy45NzEtMy40MDMtNC4zNDUtNS45MjQtLjUwNy0yLjc2MS0uMTIzLTUuNzY4IDEuMzg5LTguMTY3IDEuODYzLTIuNzA1IDUuOTY4LTMuNjQyIDguNzExLTEuNzQxLjQyMi4yMjggMS4wMjggMS4xNDQgMS4yOTQgMS4wMTgtLjAwNi0yLjY0OS0uMDAwMS01LjI5OC0uMDAzLTcuOTQ4LjkzMiAwIDEuODY1IDAgMi43OTcgMCAwIDcuNjM1IDAgMTUuMjcxIDAgMjIuOTA2LS44NyAwLTEuNzQgMC0yLjYxIDBtLTguODktOC4yODFjLS4wNzUgMi4yNDYuNjM3IDQuODYxIDIuNzkgNS45NTIgMiAxLjAyMyA0LjY4Mi0uMDQ3IDUuNDg4LTIuMTM0Ljg5Ny0xLjk5Ni43NDYtNC4yNzguMzg4LTYuMzgyLS40MjUtMS45NS0yLjA0Ni0zLjgwNC00LjE1OC0zLjgwNS0xLjkwMy0uMDY1LTMuNjMzIDEuMzYzLTQuMDk5IDMuMTgxLS4zMjcgMS4wMjgtLjM5NCAyLjExNi0uNDA4IDMuMTg4Ii8+PHBhdGggZD0ibTExMi41MiAzNi4wNWMuOTI3LS4xNDYgMS44NTQtLjI5MiAyLjc4MS0uNDM4LjEyNiAxLjY5IDEuNTEzIDMuMjQ0IDMuMjM5IDMuMzY1IDEuMzk4LjIxMiAzLjAxLjEyIDQuMTItLjg1MS44MDctLjc0OSAxLjEtMi4yNDMuMTU5LTMuMDEtLjkwOC0uNzIzLTIuMTE1LS44MTItMy4xODItMS4xNzItMS43OTctLjQ4NS0zLjcxMy0uODQ4LTUuMjQzLTEuOTctMS44My0xLjU1MS0xLjg2OC00LjY3OS0uMDk5LTYuMjkzIDEuNTc3LTEuNTA3IDMuOTE4LTEuNzg0IDYtMS41OTQgMS42ODUuMTc2IDMuNTQuNzQ5IDQuNTM1IDIuMjE3LjQ2NC43MTUuNzA4IDEuNTQ5Ljg0NCAyLjM4NC0uOTE3LjEyNS0xLjgzMy4yNS0yLjc1LjM3NS0uMTIxLTEuNTY5LTEuNjUzLTIuNzYyLTMuMTktMi42OTUtMS4yNDYtLjA4Mi0yLjcwMi4wMTItMy42MDguOTgyLS42MjQuNzI0LS41NDMgMS45NzEuMzE0IDIuNDgxLjk5OC43MDYgMi4yNjkuNzU3IDMuMzg5IDEuMTczIDEuNzU0LjUxMiAzLjY0Ny44NDggNS4xNDEgMS45NjUgMS42ODYgMS40NzYgMS43MjggNC4yNDQuMzk2IDUuOTY2LTEuMjk4IDEuNzg4LTMuNTk3IDIuNDE3LTUuNzA5IDIuNDQ4LTEuNDY2LS4wMDctMi45ODQtLjIxNC00LjI5OS0uODkzLTEuNTk5LS45MDktMi41ODUtMi42NTUtMi44NC00LjQ0NCIvPjwvZz48ZyBmaWxsPSIjZmZmIj48cGF0aCBkPSJtMTUxLjExIDQxdi0yMi45MDZoMy4wM3YyMi45MDZ6Ii8+PHBhdGggZD0ibTE1OC41NSAyOS44NDRjLS4yNzctNC43NjUgMi4zMzUtOS45NzcgNy4wNS0xMS41NTEgNC45MDItMS43NTcgMTEuMjI2LjE5NyAxMy40NzcgNS4wOTggMi4yNjYgNC43MDYgMS44OSAxMC45Mi0xLjc2NyAxNC44MzMtNC41NTQgNC45NDgtMTMuODEgMy45NzYtMTcuMDgtMS45NTQtMS4xMTEtMS45NDYtMS42NzktNC4xODgtMS42OC02LjQyNm0zLjEyNS4wNDdjLS4zNzcgNC4yNzMgMi44OTIgOC44NDQgNy4zNzUgOC45NTEgMy43OTEuMjIxIDcuNTU3LTIuNjUzIDcuOTk3LTYuNDk3Ljc5NC0zLjczMS4xMzktOC4yOTItMy4xMDctMTAuNjk2LTMuNzg4LTIuODE0LTEwLjA1LTEuMTA0LTExLjU5MSAzLjQ0NC0uNTQgMS41MzktLjY0MiAzLjE4MS0uNjc1IDQuNzk4Ii8+PC9nPjwvc3ZnPg==;" vertex="1" parent="1">
          <mxGeometry x="540" y="405" width="95.59" height="28" as="geometry" />
        </mxCell>
        <mxCell id="nTbA3EUPLM0Qqg01UbJy-81" style="edgeStyle=orthogonalEdgeStyle;rounded=0;orthogonalLoop=1;jettySize=auto;html=1;startArrow=classic;startFill=1;endArrow=none;endFill=0;" edge="1" parent="1" source="nTbA3EUPLM0Qqg01UbJy-70" target="nTbA3EUPLM0Qqg01UbJy-80">
          <mxGeometry relative="1" as="geometry">
            <mxPoint x="660" y="419" as="targetPoint" />
          </mxGeometry>
        </mxCell>
        <mxCell id="nTbA3EUPLM0Qqg01UbJy-88" style="edgeStyle=orthogonalEdgeStyle;rounded=0;orthogonalLoop=1;jettySize=auto;html=1;startArrow=classic;startFill=1;endArrow=none;endFill=0;" edge="1" parent="1" source="nTbA3EUPLM0Qqg01UbJy-83" target="nTbA3EUPLM0Qqg01UbJy-11">
          <mxGeometry relative="1" as="geometry" />
        </mxCell>
        <mxCell id="nTbA3EUPLM0Qqg01UbJy-92" value="Grafana request info" style="edgeLabel;html=1;align=center;verticalAlign=middle;resizable=0;points=[];" connectable="0" vertex="1" parent="nTbA3EUPLM0Qqg01UbJy-88">
          <mxGeometry x="-0.4148" y="-2" relative="1" as="geometry">
            <mxPoint as="offset" />
          </mxGeometry>
        </mxCell>
        <mxCell id="nTbA3EUPLM0Qqg01UbJy-83" value="Public dashboard" style="shape=image;verticalLabelPosition=bottom;labelBackgroundColor=default;verticalAlign=top;aspect=fixed;imageAspect=0;image=data:image/svg+xml,PHN2ZyB4bWxuczp4bGluaz0iaHR0cDovL3d3dy53My5vcmcvMTk5OS94bGluayIgeG1sbnM9Imh0dHA6Ly93d3cudzMub3JnLzIwMDAvc3ZnIiB4bWw6c3BhY2U9InByZXNlcnZlIiBzdHlsZT0iZW5hYmxlLWJhY2tncm91bmQ6bmV3IDAgMCAxNDIuNSAxNDUuNjsiIHZpZXdCb3g9IjAgMCAxNDIuNSAxNDUuNiIgeT0iMHB4IiB4PSIwcHgiIGlkPSJMYXllcl8xIiB2ZXJzaW9uPSIxLjEiPiYjeGE7PHN0eWxlIHR5cGU9InRleHQvY3NzIj4mI3hhOwkuc3Qwe2ZpbGw6IzU2NTY1Njt9JiN4YTsJLnN0MXtmaWxsOnVybCgjU1ZHSURfMV8pO30mI3hhOzwvc3R5bGU+JiN4YTs8Zz4mI3hhOwk8cGF0aCBkPSJNMjguNywxMzEuNWMtMC4zLDcuOS02LjYsMTQuMS0xNC40LDE0LjFDNi4xLDE0NS42LDAsMTM5LDAsMTMwLjlzNi42LTE0LjcsMTQuNy0xNC43YzMuNiwwLDcuMiwxLjYsMTAuMiw0LjQmIzEwOyYjOTsmIzk7bC0yLjMsMi45Yy0yLjMtMi01LjEtMy40LTcuOS0zLjRjLTUuOSwwLTEwLjgsNC44LTEwLjgsMTAuOGMwLDYuMSw0LjYsMTAuOCwxMC40LDEwLjhjNS4yLDAsOS4zLTMuOCwxMC4yLTguOEgxMi42di0zLjVoMTYuMSYjMTA7JiM5OyYjOTtWMTMxLjV6IiBjbGFzcz0ic3QwIi8+JiN4YTsJPHBhdGggZD0iTTQyLjMsMTI5LjVoLTIuMmMtMi40LDAtNC40LDItNC40LDQuNHYxMS40aC0zLjl2LTE5LjZIMzV2MS42YzEuMS0xLjEsMi43LTEuNiw0LjYtMS42aDQuMkw0Mi4zLDEyOS41eiIgY2xhc3M9InN0MCIvPiYjeGE7CTxwYXRoIGQ9Ik02My43LDE0NS4zaC0zLjR2LTIuNWMtMi42LDIuNS02LjYsMy43LTEwLjcsMS45Yy0zLTEuMy01LjMtNC4xLTUuOS03LjRjLTEuMi02LjMsMy43LTExLjksOS45LTExLjkmIzEwOyYjOTsmIzk7YzIuNiwwLDUsMS4xLDYuNywyLjh2LTIuNWgzLjRWMTQ1LjN6IE01OS43LDEzN2MwLjktNC0yLjEtNy42LTYtNy42Yy0zLjQsMC02LjEsMi44LTYuMSw2LjFjMCwzLjgsMy4zLDYuNyw3LjIsNi4xJiMxMDsmIzk7JiM5O0M1Ny4xLDE0MS4yLDU5LjEsMTM5LjMsNTkuNywxMzd6IiBjbGFzcz0ic3QwIi8+JiN4YTsJPHBhdGggZD0iTTcxLjUsMTI0Ljd2MS4xaDYuMnYzLjRoLTYuMnYxNi4xaC0zLjh2LTIwLjVjMC00LjMsMy4xLTYuOCw3LTYuOGg0LjdsLTEuNiwzLjdoLTMuMSYjMTA7JiM5OyYjOTtDNzIuOSwxMjEuNiw3MS41LDEyMyw3MS41LDEyNC43eiIgY2xhc3M9InN0MCIvPiYjeGE7CTxwYXRoIGQ9Ik05OC41LDE0NS4zaC0zLjN2LTIuNWMtMi42LDIuNS02LjYsMy43LTEwLjcsMS45Yy0zLTEuMy01LjMtNC4xLTUuOS03LjRjLTEuMi02LjMsMy43LTExLjksOS45LTExLjkmIzEwOyYjOTsmIzk7YzIuNiwwLDUsMS4xLDYuNywyLjh2LTIuNWgzLjR2MTkuNkg5OC41eiBNOTQuNSwxMzdjMC45LTQtMi4xLTcuNi02LTcuNmMtMy40LDAtNi4xLDIuOC02LjEsNi4xYzAsMy44LDMuMyw2LjcsNy4yLDYuMSYjMTA7JiM5OyYjOTtDOTIsMTQxLjIsOTMuOSwxMzkuMyw5NC41LDEzN3oiIGNsYXNzPSJzdDAiLz4mI3hhOwk8cGF0aCBkPSJNMTE5LjQsMTMzLjh2MTEuNWgtMy45di0xMS42YzAtMi40LTItNC40LTQuNC00LjRjLTIuNSwwLTQuNCwyLTQuNCw0LjR2MTEuNmgtMy45di0xOS42aDMuMnYxLjcmIzEwOyYjOTsmIzk7YzEuNC0xLjMsMy4zLTIsNS4yLTJDMTE1LjgsMTI1LjUsMTE5LjQsMTI5LjIsMTE5LjQsMTMzLjh6IiBjbGFzcz0ic3QwIi8+JiN4YTsJPHBhdGggZD0iTTE0Mi40LDE0NS4zaC0zLjN2LTIuNWMtMi42LDIuNS02LjYsMy43LTEwLjcsMS45Yy0zLTEuMy01LjMtNC4xLTUuOS03LjRjLTEuMi02LjMsMy43LTExLjksOS45LTExLjkmIzEwOyYjOTsmIzk7YzIuNiwwLDUsMS4xLDYuNywyLjh2LTIuNWgzLjR2MTkuNkgxNDIuNHogTTEzOC40LDEzN2MwLjktNC0yLjEtNy42LTYtNy42Yy0zLjQsMC02LjEsMi44LTYuMSw2LjFjMCwzLjgsMy4zLDYuNyw3LjIsNi4xJiMxMDsmIzk7JiM5O0MxMzUuOSwxNDEuMiwxMzcuOCwxMzkuMywxMzguNCwxMzd6IiBjbGFzcz0ic3QwIi8+JiN4YTs8L2c+JiN4YTs8bGluZWFyR3JhZGllbnQgZ3JhZGllbnRUcmFuc2Zvcm09Im1hdHJpeCgxIDAgMCAtMSAwIDE0OC42KSIgeTI9IjExMy4zNDE1IiB4Mj0iNzEuMjUiIHkxPSIxMC40ODkzIiB4MT0iNzEuMjUiIGdyYWRpZW50VW5pdHM9InVzZXJTcGFjZU9uVXNlIiBpZD0iU1ZHSURfMV8iPiYjeGE7CTxzdG9wIHN0eWxlPSJzdG9wLWNvbG9yOiNGQ0VFMUYiIG9mZnNldD0iMCIvPiYjeGE7CTxzdG9wIHN0eWxlPSJzdG9wLWNvbG9yOiNGMTVCMkEiIG9mZnNldD0iMSIvPiYjeGE7PC9saW5lYXJHcmFkaWVudD4mI3hhOzxwYXRoIGQ9Ik0xMjIuOSw0OS45Yy0wLjItMS45LTAuNS00LjEtMS4xLTYuNWMtMC42LTIuNC0xLjYtNS0yLjktNy44Yy0xLjQtMi43LTMuMS01LjYtNS40LTguMyYjMTA7JiM5O2MtMC45LTEuMS0xLjktMi4xLTIuOS0zLjJjMS42LTYuMy0xLjktMTEuOC0xLjktMTEuOGMtNi4xLTAuNC05LjksMS45LTExLjMsMi45Yy0wLjItMC4xLTAuNS0wLjItMC43LTAuM2MtMS0wLjQtMi4xLTAuOC0zLjItMS4yJiMxMDsmIzk7Yy0xLjEtMC4zLTIuMi0wLjctMy4zLTAuOWMtMS4xLTAuMy0yLjMtMC41LTMuNS0wLjdjLTAuMiwwLTAuNC0wLjEtMC42LTAuMUM4My41LDMuNiw3NS45LDAsNzUuOSwwYy04LjcsNS42LTEwLjQsMTMuMS0xMC40LDEzLjEmIzEwOyYjOTtzMCwwLjItMC4xLDAuNGMtMC41LDAuMS0wLjksMC4zLTEuNCwwLjRjLTAuNiwwLjItMS4zLDAuNC0xLjksMC43Yy0wLjYsMC4zLTEuMywwLjUtMS45LDAuOGMtMS4zLDAuNi0yLjUsMS4yLTMuOCwxLjkmIzEwOyYjOTtjLTEuMiwwLjctMi40LDEuNC0zLjUsMi4yYy0wLjItMC4xLTAuMy0wLjItMC4zLTAuMmMtMTEuNy00LjUtMjIuMSwwLjktMjIuMSwwLjljLTAuOSwxMi41LDQuNywyMC4zLDUuOCwyMS43JiMxMDsmIzk7Yy0wLjMsMC44LTAuNSwxLjUtMC44LDIuM2MtMC45LDIuOC0xLjUsNS43LTEuOSw4LjdjLTAuMSwwLjQtMC4xLDAuOS0wLjIsMS4zYy0xMC44LDUuMy0xNCwxNi4zLTE0LDE2LjNjOSwxMC40LDE5LjYsMTEsMTkuNiwxMSYjMTA7JiM5O2wwLDBjMS4zLDIuNCwyLjksNC43LDQuNiw2LjhjMC43LDAuOSwxLjUsMS43LDIuMywyLjZjLTMuMyw5LjQsMC41LDE3LjMsMC41LDE3LjNjMTAuMSwwLjQsMTYuNy00LjQsMTguMS01LjVjMSwwLjMsMiwwLjYsMywwLjkmIzEwOyYjOTtjMy4xLDAuOCw2LjMsMS4zLDkuNCwxLjRjMC44LDAsMS42LDAsMi40LDBoMC40SDgwaDAuNUg4MWwwLDBjNC43LDYuOCwxMy4xLDcuNywxMy4xLDcuN2M1LjktNi4zLDYuMy0xMi40LDYuMy0xMy44bDAsMCYjMTA7JiM5O2MwLDAsMCwwLDAtMC4xczAtMC4yLDAtMC4ybDAsMGMwLTAuMSwwLTAuMiwwLTAuM2MxLjItMC45LDIuNC0xLjgsMy42LTIuOGMyLjQtMi4xLDQuNC00LjYsNi4yLTcuMmMwLjItMC4yLDAuMy0wLjUsMC41LTAuNyYjMTA7JiM5O2M2LjcsMC40LDExLjQtNC4yLDExLjQtNC4yYy0xLjEtNy01LjEtMTAuNC01LjktMTFsMCwwYzAsMCwwLDAtMC4xLTAuMWwtMC4xLTAuMWwwLDBsLTAuMS0wLjFjMC0wLjQsMC4xLTAuOCwwLjEtMS4zJiMxMDsmIzk7YzAuMS0wLjgsMC4xLTEuNSwwLjEtMi4zdi0wLjZ2LTAuM3YtMC4xYzAtMC4yLDAtMC4xLDAtMC4ydi0wLjV2LTAuNmMwLTAuMiwwLTAuNCwwLTAuNnMwLTAuNC0wLjEtMC42bC0wLjEtMC42bC0wLjEtMC42JiMxMDsmIzk7Yy0wLjEtMC44LTAuMy0xLjUtMC40LTIuM2MtMC43LTMtMS45LTUuOS0zLjQtOC40Yy0xLjYtMi42LTMuNS00LjgtNS43LTYuOGMtMi4yLTEuOS00LjYtMy41LTcuMi00LjZjLTIuNi0xLjItNS4yLTEuOS03LjktMi4yJiMxMDsmIzk7Yy0xLjMtMC4yLTIuNy0wLjItNC0wLjJoLTAuNWgtMC4xaC0wLjJoLTAuMmgtMC41Yy0wLjIsMC0wLjQsMC0wLjUsMGMtMC43LDAuMS0xLjQsMC4yLTIsMC4zYy0yLjcsMC41LTUuMiwxLjUtNy40LDIuOCYjMTA7JiM5O2MtMi4yLDEuMy00LjEsMy01LjcsNC45cy0yLjgsMy45LTMuNiw2LjFjLTAuOCwyLjEtMS4zLDQuNC0xLjQsNi41YzAsMC41LDAsMS4xLDAsMS42YzAsMC4xLDAsMC4zLDAsMC40djAuNGMwLDAuMywwLDAuNSwwLjEsMC44JiMxMDsmIzk7YzAuMSwxLjEsMC4zLDIuMSwwLjYsMy4xYzAuNiwyLDEuNSwzLjgsMi43LDUuNHMyLjUsMi44LDQsMy44czMsMS43LDQuNiwyLjJjMS42LDAuNSwzLjEsMC43LDQuNSwwLjZjMC4yLDAsMC40LDAsMC41LDAmIzEwOyYjOTtjMC4xLDAsMC4yLDAsMC4zLDBzMC4yLDAsMC4zLDBjMC4yLDAsMC4zLDAsMC41LDBoMC4xaDAuMWMwLjEsMCwwLjIsMCwwLjMsMGMwLjIsMCwwLjQtMC4xLDAuNS0wLjFjMC4yLDAsMC4zLTAuMSwwLjUtMC4xJiMxMDsmIzk7YzAuMy0wLjEsMC43LTAuMiwxLTAuM2MwLjYtMC4yLDEuMi0wLjUsMS44LTAuN2MwLjYtMC4zLDEuMS0wLjYsMS41LTAuOWMwLjEtMC4xLDAuMy0wLjIsMC40LTAuM2MwLjUtMC40LDAuNi0xLjEsMC4yLTEuNiYjMTA7JiM5O2MtMC40LTAuNC0xLTAuNS0xLjUtMC4zQzg4LDc0LDg3LjksNzQsODcuNyw3NC4xYy0wLjQsMC4yLTAuOSwwLjQtMS4zLDAuNWMtMC41LDAuMS0xLDAuMy0xLjUsMC40Yy0wLjMsMC0wLjUsMC4xLTAuOCwwLjEmIzEwOyYjOTtjLTAuMSwwLTAuMywwLTAuNCwwYy0wLjEsMC0wLjMsMC0wLjQsMHMtMC4zLDAtMC40LDBjLTAuMiwwLTAuMywwLTAuNSwwYzAsMC0wLjEsMCwwLDBoLTAuMWgtMC4xYy0wLjEsMC0wLjEsMC0wLjIsMCYjMTA7JiM5O3MtMC4zLDAtMC40LTAuMWMtMS4xLTAuMi0yLjMtMC41LTMuNC0xYy0xLjEtMC41LTIuMi0xLjItMy4xLTIuMWMtMS0wLjktMS44LTEuOS0yLjUtMy4xYy0wLjctMS4yLTEuMS0yLjUtMS4zLTMuOCYjMTA7JiM5O2MtMC4xLTAuNy0wLjItMS40LTAuMS0yLjFjMC0wLjIsMC0wLjQsMC0wLjZjMCwwLjEsMCwwLDAsMHYtMC4xdi0wLjFjMC0wLjEsMC0wLjIsMC0wLjNjMC0wLjQsMC4xLTAuNywwLjItMS4xYzAuNS0zLDItNS45LDQuMy04LjEmIzEwOyYjOTtjMC42LTAuNiwxLjItMS4xLDEuOS0xLjVjMC43LTAuNSwxLjQtMC45LDIuMS0xLjJjMC43LTAuMywxLjUtMC42LDIuMy0wLjhzMS42LTAuNCwyLjQtMC40YzAuNCwwLDAuOC0wLjEsMS4yLTAuMSYjMTA7JiM5O2MwLjEsMCwwLjIsMCwwLjMsMGgwLjNoMC4yYzAuMSwwLDAsMCwwLDBoMC4xaDAuM2MwLjksMC4xLDEuOCwwLjIsMi42LDAuNGMxLjcsMC40LDMuNCwxLDUsMS45YzMuMiwxLjgsNS45LDQuNSw3LjUsNy44JiMxMDsmIzk7YzAuOCwxLjYsMS40LDMuNCwxLjcsNS4zYzAuMSwwLjUsMC4xLDAuOSwwLjIsMS40djAuM1Y2NmMwLDAuMSwwLDAuMiwwLDAuM2MwLDAuMSwwLDAuMiwwLDAuM3YwLjN2MC4zYzAsMC4yLDAsMC42LDAsMC44JiMxMDsmIzk7YzAsMC41LTAuMSwxLTAuMSwxLjVjLTAuMSwwLjUtMC4xLDEtMC4yLDEuNXMtMC4yLDEtMC4zLDEuNWMtMC4yLDEtMC42LDEuOS0wLjksMi45Yy0wLjcsMS45LTEuNywzLjctMi45LDUuMyYjMTA7JiM5O2MtMi40LDMuMy01LjcsNi05LjQsNy43Yy0xLjksMC44LTMuOCwxLjUtNS44LDEuOGMtMSwwLjItMiwwLjMtMywwLjNIODFoLTAuMmgtMC4zSDgwaC0wLjNjMC4xLDAsMCwwLDAsMGgtMC4xJiMxMDsmIzk7Yy0wLjUsMC0xLjEsMC0xLjYtMC4xYy0yLjItMC4yLTQuMy0wLjYtNi40LTEuMmMtMi4xLTAuNi00LjEtMS40LTYtMi40Yy0zLjgtMi03LjItNC45LTkuOS04LjJjLTEuMy0xLjctMi41LTMuNS0zLjUtNS40JiMxMDsmIzk7cy0xLjctMy45LTIuMy01LjljLTAuNi0yLTAuOS00LjEtMS02LjJ2LTAuNHYtMC4xdi0wLjF2LTAuMlY2MHYtMC4xdi0wLjF2LTAuMnYtMC41VjU5bDAsMHYtMC4yYzAtMC4zLDAtMC41LDAtMC44JiMxMDsmIzk7YzAtMSwwLjEtMi4xLDAuMy0zLjJjMC4xLTEuMSwwLjMtMi4xLDAuNS0zLjJjMC4yLTEuMSwwLjUtMi4xLDAuOC0zLjJjMC42LTIuMSwxLjMtNC4xLDIuMi02YzEuOC0zLjgsNC4xLTcuMiw2LjgtOS45JiMxMDsmIzk7YzAuNy0wLjcsMS40LTEuMywyLjItMS45YzAuMy0wLjMsMS0wLjksMS44LTEuNGMwLjgtMC41LDEuNi0xLDIuNS0xLjRjMC40LTAuMiwwLjgtMC40LDEuMy0wLjZjMC4yLTAuMSwwLjQtMC4yLDAuNy0wLjMmIzEwOyYjOTtjMC4yLTAuMSwwLjQtMC4yLDAuNy0wLjNjMC45LTAuNCwxLjgtMC43LDIuNy0xYzAuMi0wLjEsMC41LTAuMSwwLjctMC4yYzAuMi0wLjEsMC41LTAuMSwwLjctMC4yYzAuNS0wLjEsMC45LTAuMiwxLjQtMC40JiMxMDsmIzk7YzAuMi0wLjEsMC41LTAuMSwwLjctMC4yYzAuMiwwLDAuNS0wLjEsMC43LTAuMWMwLjIsMCwwLjUtMC4xLDAuNy0wLjFsMC40LTAuMWwwLjQtMC4xYzAuMiwwLDAuNS0wLjEsMC43LTAuMSYjMTA7JiM5O2MwLjMsMCwwLjUtMC4xLDAuOC0wLjFjMC4yLDAsMC42LTAuMSwwLjgtMC4xYzAuMiwwLDAuMywwLDAuNS0wLjFoMC4zaDAuMmgwLjJjMC4zLDAsMC41LDAsMC44LTAuMWgwLjRjMCwwLDAuMSwwLDAsMGgwLjFoMC4yJiMxMDsmIzk7YzAuMiwwLDAuNSwwLDAuNywwYzAuOSwwLDEuOCwwLDIuNywwYzEuOCwwLjEsMy42LDAuMyw1LjMsMC42YzMuNCwwLjYsNi43LDEuNyw5LjYsMy4yYzIuOSwxLjQsNS42LDMuMiw3LjgsNS4xJiMxMDsmIzk7YzAuMSwwLjEsMC4zLDAuMiwwLjQsMC40YzAuMSwwLjEsMC4zLDAuMiwwLjQsMC40YzAuMywwLjIsMC41LDAuNSwwLjgsMC43YzAuMywwLjIsMC41LDAuNSwwLjgsMC43YzAuMiwwLjMsMC41LDAuNSwwLjcsMC44JiMxMDsmIzk7YzEsMSwxLjksMi4xLDIuNywzLjFjMS42LDIuMSwyLjksNC4yLDMuOSw2LjJjMC4xLDAuMSwwLjEsMC4yLDAuMiwwLjRjMC4xLDAuMSwwLjEsMC4yLDAuMiwwLjRzMC4yLDAuNSwwLjQsMC43JiMxMDsmIzk7YzAuMSwwLjIsMC4yLDAuNSwwLjMsMC43YzAuMSwwLjIsMC4yLDAuNSwwLjMsMC43YzAuNCwwLjksMC43LDEuOCwxLDIuN2MwLjUsMS40LDAuOCwyLjYsMS4xLDMuNmMwLjEsMC40LDAuNSwwLjcsMC45LDAuNyYjMTA7JiM5O2MwLjUsMCwwLjgtMC40LDAuOC0wLjlDMTIzLDUyLjcsMTIzLDUxLjQsMTIyLjksNDkuOXoiIGNsYXNzPSJzdDEiLz4mI3hhOzwvc3ZnPg==;" vertex="1" parent="1">
          <mxGeometry x="620" y="743.5" width="88.15" height="90" as="geometry" />
        </mxCell>
      </root>
    </mxGraphModel>
  </diagram>
</mxfile>
